<?xml version="1.0" encoding="UTF-8"?>
<!DOCTYPE svg PUBLIC "-//W3C//DTD SVG 1.1//EN" "http://www.w3.org/Graphics/SVG/1.1/DTD/svg11.dtd">
<svg xmlns="http://www.w3.org/2000/svg" version="1.1" width="500px" height="97px" style="shape-rendering:geometricPrecision; text-rendering:geometricPrecision; image-rendering:optimizeQuality; fill-rule:evenodd; clip-rule:evenodd" xmlns:xlink="http://www.w3.org/1999/xlink">
<g><path style="opacity:1" fill="#333333" d="M -0.5,-0.5 C 166.167,-0.5 332.833,-0.5 499.5,-0.5C 499.5,31.8333 499.5,64.1667 499.5,96.5C 332.833,96.5 166.167,96.5 -0.5,96.5C -0.5,64.1667 -0.5,31.8333 -0.5,-0.5 Z"/></g>
<g><path style="opacity:1" fill="#d0ab3e" d="M 88.5,12.5 C 87.9524,14.3936 86.9524,16.0603 85.5,17.5C 81.5475,18.4938 77.5475,19.1604 73.5,19.5C 76.6548,17.1024 80.3215,15.9358 84.5,16C 85.7051,14.6244 87.0384,13.4577 88.5,12.5 Z"/></g>
<g><path style="opacity:1" fill="#e8e8e8" d="M 473.5,16.5 C 476.163,18.0886 478.163,20.4219 479.5,23.5C 478.965,25.1013 477.965,25.6013 476.5,25C 473.829,22.5427 472.829,19.7093 473.5,16.5 Z"/></g>
<g><path style="opacity:1" fill="#f4f4f4" d="M 295.5,32.5 C 296.043,32.44 296.376,32.1067 296.5,31.5C 284.852,30.5011 273.186,30.1678 261.5,30.5C 261.5,29.1667 261.5,27.8333 261.5,26.5C 273.5,26.5 285.5,26.5 297.5,26.5C 297.5,25.5 297.5,24.5 297.5,23.5C 299.854,16.9529 303.687,15.9529 309,20.5C 311.375,24.5017 310.541,27.6683 306.5,30C 304.866,30.4935 303.199,30.6602 301.5,30.5C 298.693,49.7941 288.026,61.9608 269.5,67C 268.313,65.9805 267.313,64.8139 266.5,63.5C 282.73,59.2711 292.397,48.9377 295.5,32.5 Z"/></g>
<g><path style="opacity:1" fill="#e6e6e6" d="M 470.5,26.5 C 469.833,26.5 469.167,26.5 468.5,26.5C 467.554,24.1105 466.221,21.9438 464.5,20C 465.108,19.1301 465.941,18.6301 467,18.5C 469.288,20.3739 471.121,22.7072 472.5,25.5C 472.043,26.2975 471.376,26.6309 470.5,26.5 Z"/></g>
<g><path style="opacity:1" fill="#bcab51" d="M 73.5,19.5 C 72.5144,21.4077 70.8477,22.4077 68.5,22.5C 69.6594,20.7497 71.326,19.7497 73.5,19.5 Z"/></g>
<g><path style="opacity:1" fill="#efefef" d="M 191.5,32.5 C 191.5,33.8333 191.5,35.1667 191.5,36.5C 187.629,36.185 183.962,36.5184 180.5,37.5C 181.635,47.8486 178.635,56.6819 171.5,64C 169.44,65.6965 167.107,66.8631 164.5,67.5C 162.603,67.2718 161.27,66.2718 160.5,64.5C 172.365,59.5264 177.365,50.5264 175.5,37.5C 170.167,37.5 164.833,37.5 159.5,37.5C 159.5,42.1667 159.5,46.8333 159.5,51.5C 157.833,51.5 156.167,51.5 154.5,51.5C 154.5,46.8333 154.5,42.1667 154.5,37.5C 150.5,37.5 146.5,37.5 142.5,37.5C 142.5,35.8333 142.5,34.1667 142.5,32.5C 146.5,32.5 150.5,32.5 154.5,32.5C 154.5,28.8333 154.5,25.1667 154.5,21.5C 156.167,21.5 157.833,21.5 159.5,21.5C 159.5,25.1667 159.5,28.8333 159.5,32.5C 164.833,32.5 170.167,32.5 175.5,32.5C 175.5,28.5 175.5,24.5 175.5,20.5C 177.167,20.5 178.833,20.5 180.5,20.5C 180.5,24.5 180.5,28.5 180.5,32.5C 184.167,32.5 187.833,32.5 191.5,32.5 Z"/></g>
<g><path style="opacity:1" fill="#404040" d="M 301.5,20.5 C 306.486,20.3049 308.152,22.4716 306.5,27C 300.741,28.1387 299.074,25.972 301.5,20.5 Z"/></g>
<g><path style="opacity:1" fill="#f4f4f4" d="M 341.5,22.5 C 343.167,22.5 344.833,22.5 346.5,22.5C 346.333,34.8378 346.5,47.1712 347,59.5C 352.94,56.6139 357.773,52.4472 361.5,47C 363.391,46.6913 364.725,47.5247 365.5,49.5C 359.718,56.9674 352.552,62.6341 344,66.5C 343.228,66.3552 342.561,66.0219 342,65.5C 341.5,51.1705 341.333,36.8372 341.5,22.5 Z"/></g>
<g><path style="opacity:1" fill="#ededed" d="M 326.5,22.5 C 328.167,22.5 329.833,22.5 331.5,22.5C 331.665,31.5369 331.165,40.5369 330,49.5C 328.607,53.2857 326.941,56.9523 325,60.5C 323.654,63.1793 321.654,65.1793 319,66.5C 317.378,66.0459 316.212,65.0459 315.5,63.5C 321.636,57.895 325.136,50.895 326,42.5C 326.5,35.8417 326.666,29.175 326.5,22.5 Z"/></g>
<g><path style="opacity:1" fill="#e4b739" d="M 68.5,22.5 C 71.7399,27.1125 70.7399,30.6125 65.5,33C 62.854,33.4974 60.1873,33.6641 57.5,33.5C 57.9118,31.0274 56.9118,29.6941 54.5,29.5C 56.9686,28.6829 59.6353,28.1829 62.5,28C 64.6235,26.1966 66.6235,24.3632 68.5,22.5 Z"/></g>
<g><path style="opacity:1" fill="#f1f1f1" d="M 208.5,23.5 C 213.722,26.5422 218.555,30.2089 223,34.5C 223.167,37 222,38.1667 219.5,38C 215.167,34.3333 210.833,30.6667 206.5,27C 207.305,25.8873 207.972,24.7206 208.5,23.5 Z"/></g>
<g><path style="opacity:1" fill="#fefffe" d="M 377.5,26.5 C 390.833,26.5 404.167,26.5 417.5,26.5C 417.5,39.5 417.5,52.5 417.5,65.5C 416.167,65.5 414.833,65.5 413.5,65.5C 413.737,64.209 413.404,63.209 412.5,62.5C 402.167,62.5 391.833,62.5 381.5,62.5C 381.5,63.5 381.5,64.5 381.5,65.5C 380.167,65.5 378.833,65.5 377.5,65.5C 377.5,52.5 377.5,39.5 377.5,26.5 Z"/></g>
<g><path style="opacity:1" fill="#dbb13a" d="M 103.5,19.5 C 105.389,23.6119 108.389,26.6119 112.5,28.5C 104.275,30.2775 101.275,27.2775 103.5,19.5 Z"/></g>
<g><path style="opacity:1" fill="#797979" d="M 468.5,26.5 C 469.167,26.5 469.833,26.5 470.5,26.5C 471.5,27.1667 472.5,27.8333 473.5,28.5C 460.5,28.5 447.5,28.5 434.5,28.5C 445.833,27.8333 457.167,27.1667 468.5,26.5 Z"/></g>
<g><path style="opacity:1" fill="#f9f9f9" d="M 434.5,28.5 C 447.5,28.5 460.5,28.5 473.5,28.5C 473.5,41.5 473.5,54.5 473.5,67.5C 471.833,67.5 470.167,67.5 468.5,67.5C 468.5,66.5 468.5,65.5 468.5,64.5C 457.167,64.5 445.833,64.5 434.5,64.5C 434.5,63.1667 434.5,61.8333 434.5,60.5C 446.012,60.8281 457.346,60.4948 468.5,59.5C 468.5,50.5 468.5,41.5 468.5,32.5C 457.167,32.5 445.833,32.5 434.5,32.5C 434.5,31.1667 434.5,29.8333 434.5,28.5 Z"/></g>
<g><path style="opacity:1" fill="#787878" d="M 297.5,23.5 C 297.5,24.5 297.5,25.5 297.5,26.5C 285.5,26.5 273.5,26.5 261.5,26.5C 261.5,27.8333 261.5,29.1667 261.5,30.5C 273.186,30.1678 284.852,30.5011 296.5,31.5C 296.376,32.1067 296.043,32.44 295.5,32.5C 284.012,31.5051 272.345,31.1717 260.5,31.5C 260.5,29.5 260.5,27.5 260.5,25.5C 273.083,26.1155 285.416,25.4489 297.5,23.5 Z"/></g>
<g><path style="opacity:1" fill="#a5a5a5" d="M 377.5,26.5 C 377.5,39.5 377.5,52.5 377.5,65.5C 378.833,65.5 380.167,65.5 381.5,65.5C 380.081,66.4511 378.415,66.7845 376.5,66.5C 376.171,52.9895 376.504,39.6562 377.5,26.5 Z"/></g>
<g><path style="opacity:1" fill="#343434" d="M 381.5,31.5 C 391.833,31.5 402.167,31.5 412.5,31.5C 412.5,40.1667 412.5,48.8333 412.5,57.5C 402.167,57.5 391.833,57.5 381.5,57.5C 381.5,48.8333 381.5,40.1667 381.5,31.5 Z"/></g>
<g><path style="opacity:1" fill="#9b9b9b" d="M 381.5,31.5 C 391.987,30.5056 402.654,30.1722 413.5,30.5C 413.5,39.8333 413.5,49.1667 413.5,58.5C 402.654,58.8278 391.987,58.4944 381.5,57.5C 391.833,57.5 402.167,57.5 412.5,57.5C 412.5,48.8333 412.5,40.1667 412.5,31.5C 402.167,31.5 391.833,31.5 381.5,31.5 Z"/></g>
<g><path style="opacity:1" fill="#7c7c7c" d="M 434.5,32.5 C 445.833,32.5 457.167,32.5 468.5,32.5C 468.5,41.5 468.5,50.5 468.5,59.5C 468.167,59.5 467.833,59.5 467.5,59.5C 467.5,50.8333 467.5,42.1667 467.5,33.5C 456.321,33.8279 445.321,33.4946 434.5,32.5 Z"/></g>
<g><path style="opacity:1" fill="#f2f2f2" d="M 246.5,32.5 C 248.175,34.1788 249.008,36.1788 249,38.5C 239.467,53.5267 225.967,62.86 208.5,66.5C 205.832,65.485 205.166,63.8183 206.5,61.5C 224.372,57.9438 237.705,48.2772 246.5,32.5 Z"/></g>
<g><path style="opacity:1" fill="#bc9b3c" d="M 48.5,33.5 C 48.5,34.8333 48.5,36.1667 48.5,37.5C 44.8068,38.0599 41.1402,38.7265 37.5,39.5C 41.4383,38.2148 45.1049,36.2148 48.5,33.5 Z"/></g>
<g><path style="opacity:1" fill="#aeaeae" d="M 191.5,32.5 C 192.451,33.9187 192.784,35.5853 192.5,37.5C 188.5,37.5 184.5,37.5 180.5,37.5C 183.962,36.5184 187.629,36.185 191.5,36.5C 191.5,35.1667 191.5,33.8333 191.5,32.5 Z"/></g>
<g><path style="opacity:1" fill="#fde460" d="M 103.5,19.5 C 101.275,27.2775 104.275,30.2775 112.5,28.5C 119.415,32.0845 122.415,37.7512 121.5,45.5C 116.446,46.3905 114.279,49.3905 115,54.5C 116.413,56.4136 118.247,57.7469 120.5,58.5C 121.493,63.1196 121.827,67.7863 121.5,72.5C 121.586,73.4959 121.252,74.3292 120.5,75C 116.72,76.485 113.054,76.6517 109.5,75.5C 109.116,72.9504 107.616,71.6171 105,71.5C 101.779,71.8581 99.2791,73.3581 97.5,76C 92.1771,76.4994 86.8437,76.666 81.5,76.5C 81.0348,72.3706 78.7015,70.3706 74.5,70.5C 69.8247,70.5086 67.4914,72.8419 67.5,77.5C 56.8333,77.5 46.1667,77.5 35.5,77.5C 34.6993,75.9582 34.366,74.2915 34.5,72.5C 39.2461,71.0586 40.5795,68.0586 38.5,63.5C 37.3777,62.3698 36.0443,61.7031 34.5,61.5C 34.1703,55.1318 34.5037,48.7985 35.5,42.5C 36.2975,42.9569 36.6309,43.6236 36.5,44.5C 36.5,45.1667 36.5,45.8333 36.5,46.5C 45.6517,47.4936 54.985,47.8269 64.5,47.5C 64.5,46.1667 64.5,44.8333 64.5,43.5C 55.4754,43.8315 46.4754,43.4982 37.5,42.5C 36.2086,41.4728 36.2086,40.4728 37.5,39.5C 41.1402,38.7265 44.8068,38.0599 48.5,37.5C 48.5,36.1667 48.5,34.8333 48.5,33.5C 50.1475,31.6736 52.1475,30.3403 54.5,29.5C 56.9118,29.6941 57.9118,31.0274 57.5,33.5C 60.1873,33.6641 62.854,33.4974 65.5,33C 70.7399,30.6125 71.7399,27.1125 68.5,22.5C 70.8477,22.4077 72.5144,21.4077 73.5,19.5C 77.5475,19.1604 81.5475,18.4938 85.5,17.5C 86.9524,16.0603 87.9524,14.3936 88.5,12.5C 89.7985,10.9014 91.4652,10.4014 93.5,11C 96.9997,13.6686 100.333,16.502 103.5,19.5 Z"/></g>
<g><path style="opacity:1" fill="#ffee95" d="M 79.5,45.5 C 79.5,44.8333 79.5,44.1667 79.5,43.5C 79.6107,42.8826 79.944,42.3826 80.5,42C 93.2063,41.1634 105.873,39.9968 118.5,38.5C 118.5,39.5 118.5,40.5 118.5,41.5C 105.523,42.9789 92.5226,44.3122 79.5,45.5 Z"/></g>
<g><path style="opacity:1" fill="#f2c33c" d="M 86.5,27.5 C 93.536,26.6026 95.2027,29.1026 91.5,35C 84.3544,36.3015 82.6878,33.8015 86.5,27.5 Z"/></g>
<g><path style="opacity:1" fill="#f2c53e" d="M 79.5,43.5 C 79.5,44.1667 79.5,44.8333 79.5,45.5C 79.4334,50.399 76.9334,52.7324 72,52.5C 67.469,53.1244 65.3023,51.1244 65.5,46.5C 65.4062,44.0884 66.4062,42.255 68.5,41C 72.7414,39.8118 76.4081,40.6451 79.5,43.5 Z"/></g>
<g><path style="opacity:1" fill="#f7e376" d="M 37.5,39.5 C 36.2086,40.4728 36.2086,41.4728 37.5,42.5C 46.4754,43.4982 55.4754,43.8315 64.5,43.5C 64.5,44.8333 64.5,46.1667 64.5,47.5C 54.985,47.8269 45.6517,47.4936 36.5,46.5C 72.5,45.8333 72.5,45.1667 36.5,44.5C 36.6309,43.6236 36.2975,42.9569 35.5,42.5C 34.5037,48.7985 34.1703,55.1318 34.5,61.5C 33.346,55.013 33.1794,48.3464 34,41.5C 34.8159,40.1772 35.9826,39.5106 37.5,39.5 Z"/></g>
<g><path style="opacity:1" fill="#ffef9a" d="M 36.5,44.5 C 72.5,45.1667 72.5,45.8333 36.5,46.5C 36.5,45.8333 36.5,45.1667 36.5,44.5 Z"/></g>
<g><path style="opacity:1" fill="#e0b63d" d="M 121.5,45.5 C 122.461,54.6643 122.461,63.6643 121.5,72.5C 121.827,67.7863 121.493,63.1196 120.5,58.5C 118.247,57.7469 116.413,56.4136 115,54.5C 114.279,49.3905 116.446,46.3905 121.5,45.5 Z"/></g>
<g><path style="opacity:1" fill="#f2c23b" d="M 96.5,52.5 C 102.248,52.7424 104.248,55.5758 102.5,61C 93.7206,62.4191 91.7206,59.5858 96.5,52.5 Z"/></g>
<g><path style="opacity:1" fill="#c0c0c0" d="M 467.5,59.5 C 467.833,59.5 468.167,59.5 468.5,59.5C 457.346,60.4948 446.012,60.8281 434.5,60.5C 434.5,61.8333 434.5,63.1667 434.5,64.5C 433.549,63.0813 433.216,61.4147 433.5,59.5C 444.833,59.5 456.167,59.5 467.5,59.5 Z"/></g>
<g><path style="opacity:1" fill="#f2c43d" d="M 52.5,58.5 C 56.4866,58.6518 57.9866,60.6518 57,64.5C 54.9592,65.4231 52.7925,65.7564 50.5,65.5C 50.1849,62.7892 50.8516,60.4559 52.5,58.5 Z"/></g>
<g><path style="opacity:1" fill="#e7b938" d="M 34.5,61.5 C 36.0443,61.7031 37.3777,62.3698 38.5,63.5C 40.5795,68.0586 39.2461,71.0586 34.5,72.5C 34.5,68.8333 34.5,65.1667 34.5,61.5 Z"/></g>
<g><path style="opacity:1" fill="#8f8f8f" d="M 412.5,62.5 C 413.404,63.209 413.737,64.209 413.5,65.5C 414.833,65.5 416.167,65.5 417.5,65.5C 416.081,66.4511 414.415,66.7845 412.5,66.5C 412.5,65.1667 412.5,63.8333 412.5,62.5 Z"/></g>
<g><path style="opacity:1" fill="#e5bd42" d="M 81.5,76.5 C 78.0641,75.2185 74.7307,75.2185 71.5,76.5C 70.2438,76.4614 69.2438,76.9614 68.5,78C 57.3255,78.8257 46.3255,78.659 35.5,77.5C 46.1667,77.5 56.8333,77.5 67.5,77.5C 67.4914,72.8419 69.8247,70.5086 74.5,70.5C 78.7015,70.3706 81.0348,72.3706 81.5,76.5 Z"/></g>
<g><path style="opacity:1" fill="#d0af43" d="M 109.5,75.5 C 106.15,75.335 102.817,75.5017 99.5,76C 98.8333,76.6667 98.1667,77.3333 97.5,78C 91.9836,78.8174 86.6503,78.6507 81.5,77.5C 81.5,77.1667 81.5,76.8333 81.5,76.5C 86.8437,76.666 92.1771,76.4994 97.5,76C 99.2791,73.3581 101.779,71.8581 105,71.5C 107.616,71.6171 109.116,72.9504 109.5,75.5 Z"/></g>
<g><path style="opacity:1" fill="#947a36" d="M 71.5,76.5 C 74.7307,75.2185 78.0641,75.2185 81.5,76.5C 81.5,76.8333 81.5,77.1667 81.5,77.5C 78.2356,76.6758 74.9023,76.3424 71.5,76.5 Z"/></g>
</svg>
